<?xml version="1.0" standalone="no"?>
<!DOCTYPE svg PUBLIC "-//W3C//DTD SVG 20010904//EN"
 "http://www.w3.org/TR/2001/REC-SVG-20010904/DTD/svg10.dtd">
<svg version="1.0" xmlns="http://www.w3.org/2000/svg"
 width="612.000000pt" height="612.000000pt" viewBox="0 0 612.000000 612.000000"
 preserveAspectRatio="xMidYMid meet">
<metadata>
Created by potrace 1.16, written by Peter Selinger 2001-2019
</metadata>
<g transform="translate(0.000000,612.000000) scale(0.100000,-0.100000)"
fill="#000000" stroke="none">
<path d="M940 3270 l0 -1910 45 0 45 0 0 415 0 415 415 0 415 0 0 40 0 40
-415 0 -415 0 0 1205 0 1205 163 -2 162 -3 3 -412 2 -413 205 0 205 0 0 -165
0 -165 -205 0 -205 0 0 -460 0 -460 251 0 250 0 -3 43 -3 42 -207 3 -208 2 0
370 0 370 415 0 415 0 0 45 0 45 -205 0 -205 0 0 205 0 205 -210 0 -210 0 0
415 0 415 -205 0 -205 0 0 165 0 165 580 0 580 0 0 -205 0 -205 205 0 205 0 0
-211 0 -210 43 3 42 3 3 248 2 247 -210 0 -210 0 0 165 0 165 375 0 375 0 0
-205 0 -205 40 0 40 0 0 205 0 205 375 0 375 0 0 -205 0 -205 455 0 455 0 0
40 0 40 -415 0 -415 0 0 165 0 165 625 0 625 0 0 45 0 45 -2120 0 -2120 0 0
-1910z"/>
<path d="M1770 4510 l0 -250 210 0 210 0 0 -205 0 -205 415 0 415 0 0 -165 0
-165 -210 0 -210 0 0 -210 0 -210 -415 0 -415 0 0 -40 0 -40 210 0 210 0 0
-210 0 -210 40 0 40 0 0 210 0 210 165 0 165 0 0 -210 0 -210 250 0 250 0 0
45 0 45 -205 0 -205 0 0 370 0 370 205 0 205 0 0 415 0 415 375 0 375 0 -2
-162 -3 -163 -207 -3 -208 -2 0 -415 0 -415 -205 0 -205 0 0 -40 0 -40 250 0
250 0 0 415 0 415 370 0 370 0 2 -207 3 -208 248 -3 247 -2 0 45 0 45 -205 0
-205 0 0 165 0 165 205 0 205 0 0 205 0 205 165 0 165 0 0 -580 0 -580 -205 0
-205 0 0 -455 0 -455 40 0 40 0 2 413 3 412 163 3 162 2 0 -580 0 -580 -412
-2 -413 -3 -3 -207 -2 -208 -165 0 -165 0 0 210 0 210 -40 0 -40 0 0 -250 0
-250 250 0 250 0 0 205 0 205 370 0 370 0 0 -370 0 -370 -165 0 -165 0 0 205
0 205 -40 0 -40 0 0 -205 0 -205 -580 0 -580 0 0 205 0 205 -250 0 -250 0 0
-40 0 -40 205 0 205 0 0 -165 0 -165 -1242 -2 -1243 -3 -3 -42 -3 -43 2120 0
2121 0 0 1910 0 1910 -45 0 -45 0 0 -205 0 -205 -205 0 -205 0 0 -210 0 -210
-375 0 -375 0 0 165 0 165 210 0 210 0 0 45 0 45 -415 0 -415 0 0 205 0 205
-45 0 -45 0 0 -205 0 -205 -205 0 -205 0 0 -210 0 -210 -375 0 -375 0 0 210 0
210 -205 0 -205 0 0 205 0 205 -45 0 -45 0 0 -250z"/>
<path d="M3850 3105 l0 -415 -207 -2 -208 -3 -3 -42 -3 -43 250 0 251 0 0 460
0 460 -40 0 -40 0 0 -415z"/>
<path d="M4260 2685 l0 -415 -415 0 -415 0 2 -247 3 -248 43 -3 42 -3 0 210 0
211 415 0 415 0 0 455 0 455 -45 0 -45 0 0 -415z"/>
<path d="M2190 2020 l0 -250 40 0 40 0 0 250 0 250 -40 0 -40 0 0 -250z"/>
<path d="M2600 1815 l0 -455 45 0 45 0 0 415 0 415 165 0 165 0 0 -210 0 -210
40 0 40 0 0 250 0 250 -250 0 -250 0 0 -455z"/>
<path d="M1360 1610 l0 -250 455 0 455 0 0 40 0 40 -415 0 -415 0 0 165 0 165
211 0 210 0 -3 43 -3 42 -247 3 -248 2 0 -250z"/>
</g>
</svg>
